<svg width="28" height="27" viewBox="0 0 28 27" fill="none" xmlns="http://www.w3.org/2000/svg">
<path fill-rule="evenodd" clip-rule="evenodd" d="M14.0346 0.666626C6.6893 0.666626 0.735962 6.61996 0.735962 13.9653C0.735962 19.84 4.5453 24.8253 9.83063 26.5853C10.496 26.7053 10.736 26.296 10.736 25.944C10.736 25.628 10.7253 24.7906 10.7213 23.6826C7.0213 24.4853 6.23996 21.8986 6.23996 21.8986C5.63729 20.3626 4.76396 19.9533 4.76396 19.9533C3.5573 19.128 4.85596 19.1466 4.85596 19.1466C6.19196 19.24 6.89196 20.5173 6.89196 20.5173C8.07863 22.5493 10.0066 21.9626 10.7613 21.6226C10.8826 20.7626 11.2293 20.176 11.608 19.844C8.65596 19.5093 5.55196 18.368 5.55196 13.2706C5.55196 11.8213 6.07063 10.632 6.91729 9.70396C6.78263 9.36663 6.32263 8.01329 7.04929 6.18396C7.04929 6.18396 8.1653 5.82529 10.7053 7.54529C11.7901 7.25019 12.9091 7.09955 14.0333 7.09729C15.1575 7.09912 16.2766 7.24976 17.3613 7.54529C19.9026 5.82396 21.0173 6.18396 21.0173 6.18396C21.744 8.01329 21.288 9.36663 21.1493 9.70396C22.0026 10.632 22.5146 11.82 22.5146 13.2706C22.5146 18.3813 19.408 19.504 16.4453 19.8333C16.9186 20.244 17.3453 21.0546 17.3453 22.2946C17.3453 24.0733 17.3293 25.508 17.3293 25.944C17.3293 26.3 17.5666 26.7133 18.2453 26.5826C23.528 24.82 27.3333 19.8386 27.3333 13.9653C27.3333 6.61996 21.38 0.666626 14.0346 0.666626Z" fill="#D3E97A"/>
</svg>
